<svg height="48" width="48" xmlns="http://www.w3.org/2000/svg" xmlns:xlink="http://www.w3.org/1999/xlink"><linearGradient id="a" gradientUnits="userSpaceOnUse" x1="23" x2="37" y1="20" y2="34"><stop offset="0" stop-color="#292c2f"/><stop offset="1" stop-opacity="0"/></linearGradient><linearGradient id="b" gradientUnits="userSpaceOnUse" x1="44" x2="4" y1="44" y2="4"><stop offset="0" stop-color="#172525"/><stop offset="1" stop-color="#536161"/></linearGradient><linearGradient id="c" gradientTransform="matrix(2.0428665 -6.8308524 5.7819337 2.3633129 25.219113 34.652812)" gradientUnits="userSpaceOnUse" x1="24" x2="24" y1="35" y2="13"><stop offset="0" stop-color="#23a2cd"/><stop offset=".53" stop-color="#00b8f5"/><stop offset="1" stop-color="#2ecbff"/></linearGradient><rect fill="url(#b)" height="40" ry="1" width="40" x="4" y="4"/><path d="m17.3 33.060252 9.939748 9.939748h16.760252v-9.5l-9.5-9.5-2.967 2.967h-5.631256z" fill="url(#a)" opacity=".4"/><path d="m4 6v-1c0-.554007.445996-1 1-1h38c.554004 0 1 .445993 1 1v1c0-.554007-.445996-1-1-1h-38c-.554004 0-1 .445993-1 1z" fill="#fff" opacity=".184"/><path d="m4 42v1c0 .554007.445996 1 1 1h38c.554004 0 1-.445993 1-1v-1c0 .554007-.445996 1-1 1h-38c-.554004 0-1-.445993-1-1z" opacity=".481"/><g fill="url(#c)"><path d="m23.672478 26.601189-9.572478-6.780116 3.2-4.880625 9.572478 6.780116z" opacity=".61157"/><path d="m24.188465 21.033h7.344535l2.967 2.967-2.967 2.967h-5.631256l-8.601744 6.093252-3.2-4.880845 5.9-4.179407z"/></g></svg>